<?xml version="1.0" standalone="no"?>
<!DOCTYPE svg PUBLIC "-//W3C//DTD SVG 20010904//EN"
 "http://www.w3.org/TR/2001/REC-SVG-20010904/DTD/svg10.dtd">
<svg version="1.0" xmlns="http://www.w3.org/2000/svg"
 width="32.000000pt" height="32.000000pt" viewBox="0 0 32.000000 32.000000"
 preserveAspectRatio="xMidYMid meet">

<g transform="translate(0.000000,32.000000) scale(0.100000,-0.100000)"
fill="#000000" stroke="none">
<path d="M112 298 c-7 -7 -12 -31 -12 -55 0 -73 56 -108 100 -61 24 26 27 90
4 112 -18 19 -75 21 -92 4z"/>
<path d="M79 136 c-24 -12 -46 -73 -35 -101 8 -22 36 -18 36 5 0 11 7 20 15
20 8 0 15 5 15 10 0 6 5 10 11 10 6 0 8 -7 5 -16 -3 -8 -1 -24 4 -35 9 -15 22
-19 63 -19 73 0 91 15 82 68 -3 22 -13 46 -21 53 -20 16 -145 20 -175 5z"/>
</g>
</svg>
